<?xml version="1.0" encoding="UTF-8"?><svg id="Layer_2" xmlns="http://www.w3.org/2000/svg" viewBox="0 0 784 139"><defs><style>.cls-1{fill:#fff;}.cls-2{fill:#06062b;stroke:#fff;stroke-miterlimit:10;stroke-width:3px;}</style></defs><g id="Layer_1-2"><rect class="cls-2" x="1.5" y="1.5" width="781" height="136" rx="27.33" ry="27.33"/><path class="cls-1" d="m28.96,81.92v-24.31c0-16.65,7.88-27.08,26.31-27.08h28.52c18.42,0,26.31,10.43,26.31,27.08v24.31c0,16.54-7.88,26.97-26.31,26.97h-28.52c-18.42,0-26.31-10.43-26.31-26.97Zm54.83,12.21c7.44,0,10.88-2.11,10.88-11.65v-25.42c0-9.66-3.11-11.77-10.88-11.77h-28.52c-7.66,0-10.88,2.11-10.88,11.77v25.42c0,9.54,3.44,11.65,10.88,11.65h28.52Z"/><path class="cls-1" d="m161.27,46.51c1.78,0,2.77,1,2.77,2.78v8.1c0,1.78-1,2.77-2.77,2.77h-15.98c-5.99,0-8.66,1.55-8.66,9.44v36.52c0,1.78-1,2.78-2.77,2.78h-9.1c-1.78,0-2.77-1-2.77-2.78v-56.83c0-1.78,1-2.78,2.77-2.78h9.1c1.78,0,2.77,1,2.77,2.78v4.44c2.66-4.66,7.55-7.21,16.09-7.21h8.55Z"/><path class="cls-1" d="m166.27,91.24c0-12.65,4.77-17.31,19.87-18.87l23.31-2.33c2.66-.33,3.55-1.67,3.55-4,0-4.55-2-5.88-7.77-5.88h-31.19c-1.78,0-2.77-1-2.77-2.77v-8.1c0-1.78,1-2.78,2.77-2.78h31.52c15.98,0,22.09,5.66,22.09,18.31v41.29c0,1.78-1,2.78-2.77,2.78h-9.1c-1.78,0-2.77-1-2.77-2.78v-5.22c-2.89,5.33-7.33,7.99-16.98,7.99h-6.44c-14.87,0-23.31-5.11-23.31-17.65Zm36.85,4.44c7.33,0,9.88-2.44,9.88-9.54v-5.33l-24.42,2.44c-5.88.56-7.55,2.22-7.55,6.55,0,4,2.89,5.88,8.43,5.88h13.65Z"/><path class="cls-1" d="m236.42,91.24c0-12.65,4.77-17.31,19.87-18.87l23.31-2.33c2.66-.33,3.55-1.67,3.55-4,0-4.55-2-5.88-7.77-5.88h-31.19c-1.78,0-2.77-1-2.77-2.77v-8.1c0-1.78,1-2.78,2.77-2.78h31.52c15.98,0,22.09,5.66,22.09,18.31v41.29c0,1.78-1,2.78-2.77,2.78h-9.1c-1.78,0-2.77-1-2.77-2.78v-5.22c-2.89,5.33-7.33,7.99-16.98,7.99h-6.44c-14.87,0-23.31-5.11-23.31-17.65Zm36.85,4.44c7.33,0,9.88-2.44,9.88-9.54v-5.33l-24.42,2.44c-5.88.56-7.55,2.22-7.55,6.55,0,4,2.89,5.88,8.43,5.88h13.65Z"/><path class="cls-1" d="m348.97,46.51c1.78,0,2.78,1,2.78,2.78v8.1c0,1.78-1,2.77-2.78,2.77h-15.98c-5.99,0-8.66,1.55-8.66,9.44v36.52c0,1.78-1,2.78-2.78,2.78h-9.1c-1.78,0-2.78-1-2.78-2.78v-56.83c0-1.78,1-2.78,2.78-2.78h9.1c1.78,0,2.78,1,2.78,2.78v4.44c2.66-4.66,7.55-7.21,16.09-7.21h8.55Z"/><path class="cls-1" d="m385.27,84.69c0-1.44.78-2.22,2.22-2.22h6.44c1.44,0,2.22.78,2.22,2.22.56,10.32,4.44,13.65,15.43,13.65h21.2c12.1,0,16.21-2.78,16.21-11.77s-4.11-10.43-14.65-11.21l-24.31-2c-17.09-1.33-24.2-6.11-24.2-20.64s6.88-22.2,26.97-22.2h19.53c18.54,0,25.64,7.55,26.31,24.2,0,1.44-.78,2.22-2.22,2.22h-6.44c-1.44,0-2.22-.78-2.22-2.22-.56-10.32-4.44-13.65-15.43-13.65h-19.42c-12.32,0-16.32,2.66-16.32,11.77,0,8.43,4,10.1,14.54,10.99l24.31,1.89c16.98,1.33,24.31,6.44,24.31,20.87s-6.88,22.31-26.97,22.31h-21.2c-18.54,0-25.64-7.55-26.31-24.2Z"/><path class="cls-1" d="m475.18,85.36v-29.19h-6.88c-1.44,0-2.22-.78-2.22-2.22v-5.22c0-1.44.78-2.22,2.22-2.22,9.1-.11,9.88-1,9.99-13.65,0-1.55.78-2.33,2.22-2.33h2.89c1.44,0,2.22.78,2.22,2.22v13.76h25.53c1.44,0,2.22.78,2.22,2.22v5.22c0,1.44-.78,2.22-2.22,2.22h-25.53v30.08c0,9.99,3.11,12.99,14.21,12.99h11.32c1.44,0,2.22.78,2.22,2.22v5.22c0,1.44-.78,2.22-2.22,2.22h-11.32c-20.09,0-24.64-7.99-24.64-23.53Z"/><path class="cls-1" d="m575.96,46.62h5.99c1.44,0,2.22.78,2.22,2.22v57.94c0,1.44-.78,2.22-2.22,2.22h-5.99c-1.44,0-2.22-.78-2.22-2.22v-5.99c-2.44,5.44-7.55,8.21-17.65,8.21h-10.43c-18.42,0-22.98-8.21-22.98-24.64v-35.63c0-1.44.78-2.22,2.22-2.22h5.99c1.44,0,2.22.78,2.22,2.22v36.52c0,11.43,2.44,13.76,12.76,13.76h15.09c8.77,0,12.76-1.89,12.76-13.76v-36.4c0-1.44.78-2.22,2.22-2.22Z"/><path class="cls-1" d="m651.55,24.64h5.99c1.44,0,2.22.78,2.22,2.22v79.8c0,1.44-.78,2.22-2.22,2.22h-5.99c-1.44,0-2.22-.78-2.22-2.22v-5.88c-2.44,5.44-7.44,8.1-17.54,8.1h-13.32c-18.54,0-22.97-8.21-22.97-24.31v-13.43c0-16.54,4.44-24.64,22.97-24.64h13.32c10.1,0,15.09,2.66,17.54,8.1v-27.75c0-1.44.78-2.22,2.22-2.22Zm-2.22,60.71v-15.09c0-11.88-4-13.88-12.65-13.88h-17.98c-10.32,0-12.76,2.44-12.76,13.88v15.09c0,11.21,2.44,13.65,12.76,13.65h17.98c8.66,0,12.65-2,12.65-13.65Z"/><path class="cls-1" d="m672.42,37.41v-10.54c0-1.44.78-2.22,2.22-2.22h5.99c1.44,0,2.22.78,2.22,2.22v10.54c0,1.44-.78,2.22-2.22,2.22h-5.99c-1.44,0-2.22-.78-2.22-2.22Zm0,69.26v-57.94c0-1.44.78-2.22,2.22-2.22h5.99c1.44,0,2.22.78,2.22,2.22v57.94c0,1.44-.78,2.22-2.22,2.22h-5.99c-1.44,0-2.22-.78-2.22-2.22Z"/><path class="cls-1" d="m694.18,84.25v-13.43c0-16.09,4.44-24.31,22.97-24.31h18.42c18.54,0,22.98,8.21,22.98,24.31v13.43c0,16.54-4.44,24.64-22.98,24.64h-18.42c-18.54,0-22.97-8.1-22.97-24.64Zm41.18,14.76c10.32,0,12.76-2.44,12.76-13.87v-15.1c0-11.21-2.44-13.65-12.76-13.65h-17.98c-10.32,0-12.76,2.44-12.76,13.65v15.1c0,11.43,2.44,13.87,12.76,13.87h17.98Z"/></g></svg>