<?xml version="1.0" encoding="UTF-8"?><svg id="Layer_1" xmlns="http://www.w3.org/2000/svg" viewBox="0 0 986.1374 114.0173"><defs><style>.cls-1{fill:#9694fd;}</style></defs><path class="cls-1" d="m0,77.4124v-32.8562C0,22.0537,10.652,7.9514,35.5555,7.9514h38.5544c24.9035,0,35.5555,14.1023,35.5555,36.6049v32.8562c0,22.352-10.652,36.4544-35.5555,36.4544h-38.5544C10.652,113.8668,0,99.7645,0,77.4124Zm74.1099,16.502c10.0514,0,14.7029-2.8511,14.7029-15.7523v-34.3557c0-13.0517-4.2014-15.9028-14.7029-15.9028h-38.5544c-10.3524,0-14.7029,2.8511-14.7029,15.9028v34.3557c0,12.9012,4.6515,15.7523,14.7029,15.7523h38.5544Z"/><path class="cls-1" d="m178.8321,29.5537c2.3997,0,3.75,1.3516,3.75,3.7513v10.9529c0,2.3997-1.3503,3.7487-3.75,3.7487h-21.6036c-8.1005,0-11.7014,2.1014-11.7014,12.7534v49.3556c0,2.3997-1.3503,3.7513-3.75,3.7513h-12.3019c-2.3997,0-3.75-1.3516-3.75-3.7513V33.305c0-2.3997,1.3503-3.7513,3.75-3.7513h12.3019c2.3997,0,3.75,1.3516,3.75,3.7513v6.0005c3.6008-6.3014,10.2019-9.7518,21.7528-9.7518h11.5522Z"/><path class="cls-1" d="m185.5876,90.0127c0-17.1013,6.4506-23.4027,26.8544-25.5041l31.5046-3.1494c3.5995-.4514,4.8007-2.2518,4.8007-5.4012,0-6.151-2.7006-7.9514-10.5015-7.9514h-42.1566c-2.3997,0-3.75-1.349-3.75-3.7487v-10.9529c0-2.3997,1.3503-3.7513,3.75-3.7513h42.6067c21.6023,0,29.8533,7.6531,29.8533,24.7543v55.8075c0,2.3997-1.3503,3.7513-3.75,3.7513h-12.3019c-2.401,0-3.75-1.3516-3.75-3.7513v-7.0512c-3.9018,7.2016-9.9023,10.8025-22.9539,10.8025h-8.7011c-20.1028,0-31.5046-6.9007-31.5046-23.8541Zm49.807,6.0005c9.9009,0,13.3526-3.2999,13.3526-12.9012v-7.2016l-33.0054,3.2999c-7.9514.7524-10.2006,3.0016-10.2006,8.8516,0,5.4012,3.9005,7.9514,11.4004,7.9514h18.4529Z"/><path class="cls-1" d="m280.4049,90.0127c0-17.1013,6.4506-23.4027,26.8544-25.5041l31.5046-3.1494c3.5995-.4514,4.8007-2.2518,4.8007-5.4012,0-6.151-2.7006-7.9514-10.5015-7.9514h-42.1566c-2.3997,0-3.75-1.349-3.75-3.7487v-10.9529c0-2.3997,1.3503-3.7513,3.75-3.7513h42.6067c21.6023,0,29.8533,7.6531,29.8533,24.7543v55.8075c0,2.3997-1.3503,3.7513-3.75,3.7513h-12.3019c-2.401,0-3.75-1.3516-3.75-3.7513v-7.0512c-3.9018,7.2016-9.9023,10.8025-22.9539,10.8025h-8.7011c-20.1028,0-31.5046-6.9007-31.5046-23.8541Zm49.807,6.0005c9.9009,0,13.3526-3.2999,13.3526-12.9012v-7.2016l-33.0054,3.2999c-7.9514.7524-10.2006,3.0016-10.2006,8.8516,0,5.4012,3.9005,7.9514,11.4004,7.9514h18.4529Z"/><path class="cls-1" d="m432.5305,29.5537c2.401,0,3.7513,1.3516,3.7513,3.7513v10.9529c0,2.3997-1.3503,3.7487-3.7513,3.7487h-21.6023c-8.1005,0-11.7014,2.1014-11.7014,12.7534v49.3556c0,2.3997-1.3503,3.7513-3.7513,3.7513h-12.3006c-2.401,0-3.7513-1.3516-3.7513-3.7513V33.305c0-2.3997,1.3503-3.7513,3.7513-3.7513h12.3006c2.401,0,3.7513,1.3516,3.7513,3.7513v6.0005c3.6008-6.3014,10.2006-9.7518,21.7528-9.7518h11.5509Z"/><path class="cls-1" d="m481.5944,81.1611c0-1.9509,1.0507-2.9989,3.0002-2.9989h8.7011c1.9509,0,3.0002,1.048,3.0002,2.9989.7511,13.9519,6.0018,18.4529,20.8539,18.4529h28.6535c16.3515,0,21.9033-3.7513,21.9033-15.9028,0-11.5496-5.5517-14.1023-19.8032-15.1504l-32.8549-2.7006c-23.1018-1.8004-32.7031-8.2523-32.7031-27.9037,0-19.9524,9.3004-30.0051,36.4544-30.0051h26.403c25.054,0,34.6553,10.2006,35.5555,32.7057,0,1.9482-1.0507,2.9989-3.0002,2.9989h-8.7011c-1.9509,0-3.0002-1.0507-3.0002-2.9989-.7511-13.9519-6.0018-18.4529-20.8539-18.4529h-26.2538c-16.6512,0-22.0524,3.6008-22.0524,15.9028,0,11.3991,5.4012,13.6509,19.6527,14.8521l32.8549,2.5501c22.9526,1.8004,32.8536,8.7011,32.8536,28.2021,0,20.1028-9.3004,30.1556-36.4544,30.1556h-28.6535c-25.054,0-34.6553-10.2032-35.5555-32.7057Z"/><path class="cls-1" d="m603.1182,82.0613v-39.4559h-9.3017c-1.9509,0-3.0002-1.048-3.0002-2.9989v-7.0512c0-1.9509,1.0494-3.0016,3.0002-3.0016,12.3019-.1478,13.3513-1.349,13.5018-18.4529,0-2.0987,1.0507-3.1494,3.0002-3.1494h3.9005c1.9509,0,3.0002,1.0507,3.0002,3.0016v18.6007h34.5048c1.9509,0,3.0002,1.0507,3.0002,3.0016v7.0512c0,1.9509-1.0494,2.9989-3.0002,2.9989h-34.5048v40.6571c0,13.5004,4.2014,17.5527,19.2026,17.5527h15.3022c1.9509,0,3.0002,1.0507,3.0002,2.9989v7.0512c0,1.9509-1.0494,3.0016-3.0002,3.0016h-15.3022c-27.1527,0-33.3037-10.8025-33.3037-31.8055Z"/><path class="cls-1" d="m739.3397,29.7042h8.1019c1.9496,0,3.0002,1.0507,3.0002,3.0016v78.31c0,1.9509-1.0507,3.0016-3.0002,3.0016h-8.1019c-1.9496,0-3.0002-1.0507-3.0002-3.0016v-8.1019c-3.2999,7.3521-10.2006,11.1034-23.8528,11.1034h-14.1023c-24.9035,0-31.0545-11.1034-31.0545-33.305v-48.1571c0-1.9509,1.0507-3.0016,3.0016-3.0016h8.1005c1.9509,0,3.0002,1.0507,3.0002,3.0016v49.3556c0,15.454,3.3012,18.6034,17.2531,18.6034h20.4025c11.8518,0,17.2517-2.5501,17.2517-18.6034v-49.2051c0-1.9509,1.0507-3.0016,3.0002-3.0016Z"/><path class="cls-1" d="m841.5091,0h8.1005c1.9509,0,3.0002,1.0507,3.0002,3.0016v107.8637c0,1.9509-1.0494,3.0016-3.0002,3.0016h-8.1005c-1.9509,0-3.0002-1.0507-3.0002-3.0016v-7.9514c-3.3012,7.3521-10.0514,10.9529-23.7037,10.9529h-18.0028c-25.0527,0-31.0531-11.1034-31.0531-32.8562v-18.152c0-22.352,6.0005-33.305,31.0531-33.305h18.0028c13.6522,0,20.4025,3.6008,23.7037,10.9529V3.0016c0-1.9509,1.0494-3.0016,3.0002-3.0016Zm-3.0002,82.0613v-20.4011c0-16.0532-5.4012-18.7539-17.1026-18.7539h-24.3029c-13.9519,0-17.2531,3.2999-17.2531,18.7539v20.4011c0,15.153,3.3012,18.4529,17.2531,18.4529h24.3029c11.7014,0,17.1026-2.7006,17.1026-18.4529Z"/><path class="cls-1" d="m869.7204,17.2517V3.0016c0-1.9509,1.0507-3.0016,3.0016-3.0016h8.1005c1.9509,0,3.0002,1.0507,3.0002,3.0016v14.2502c0,1.9509-1.0494,3.0016-3.0002,3.0016h-8.1005c-1.9509,0-3.0016-1.0507-3.0016-3.0016Zm0,93.6135V32.5552c0-1.9509,1.0507-3.0016,3.0016-3.0016h8.1005c1.9509,0,3.0002,1.0507,3.0002,3.0016v78.31c0,1.9509-1.0494,3.0016-3.0002,3.0016h-8.1005c-1.9509,0-3.0016-1.0507-3.0016-3.0016Z"/><path class="cls-1" d="m899.1263,80.5618v-18.152c0-21.7528,6.0005-32.8562,31.0531-32.8562h24.9035c25.054,0,31.0545,11.1034,31.0545,32.8562v18.152c0,22.352-6.0005,33.305-31.0545,33.305h-24.9035c-25.0527,0-31.0531-10.9529-31.0531-33.305Zm55.657,19.9524c13.9519,0,17.2517-3.2999,17.2517-18.7512v-20.4038c0-15.153-3.2999-18.4529-17.2517-18.4529h-24.3029c-13.9519,0-17.2531,3.2999-17.2531,18.4529v20.4038c0,15.4513,3.3012,18.7512,17.2531,18.7512h24.3029Z"/></svg>